<?xml version="1.0" standalone="no"?>
<!DOCTYPE svg PUBLIC "-//W3C//DTD SVG 20010904//EN"
 "http://www.w3.org/1999/XSL/Transform">
<svg version="1.0" xmlns="http://www.w3.org/2000/svg"
 width="500.000000pt" height="430.000000pt" viewBox="0 0 500.000000 430.000000"
 preserveAspectRatio="xMidYMid meet">

<g transform="translate(0.000000,430.000000) scale(0.100000,-0.100000)"
fill="#000000" stroke="none">
<path d="M2375 3193 c-122 -72 -618 -357 -678 -388 l-37 -20 2 -490 3 -490 65
-36 c36 -20 126 -71 200 -114 74 -43 151 -87 170 -98 66 -37 205 -117 220
-127 8 -6 22 -13 30 -17 8 -4 43 -24 78 -45 34 -21 68 -38 75 -38 7 0 56 25
108 56 51 31 112 66 134 79 39 21 151 86 435 250 74 42 143 85 154 94 18 15
18 32 12 386 -3 204 -6 420 -6 481 l0 112 -172 98 c-95 54 -182 104 -193 110
-11 6 -118 68 -238 137 -120 70 -225 127 -235 126 -9 0 -66 -30 -127 -66z
m243 -155 c59 -33 121 -69 137 -78 17 -9 107 -61 200 -115 94 -54 186 -108
206 -119 l36 -20 7 -225 c6 -200 1 -557 -9 -587 -3 -9 -233 -148 -334 -202
-13 -7 -49 -27 -80 -46 -148 -87 -266 -150 -280 -149 -14 1 -265 139 -296 163
-5 4 -30 19 -55 32 -25 14 -94 54 -155 90 -60 35 -121 71 -135 79 -65 37 -60
3 -60 440 l0 398 48 27 c26 15 83 49 127 75 44 26 96 56 115 66 126 71 377
217 385 224 17 16 36 9 143 -53z"/>
<path d="M2380 2895 c-30 -19 -61 -39 -67 -45 -10 -8 -13 -115 -13 -469 0
-252 -2 -460 -6 -463 -5 -6 -187 95 -216 120 -17 14 -18 43 -18 344 l0 330
-32 -20 c-18 -11 -49 -29 -68 -39 l-35 -20 0 -337 0 -338 253 -145 c139 -80
255 -143 258 -140 5 4 6 1248 1 1253 -1 1 -27 -13 -57 -31z"/>
<path d="M2567 2923 c-12 -11 -8 -1253 3 -1253 11 0 132 67 237 131 35 22 65
39 67 39 8 0 181 103 199 118 14 12 17 32 17 113 0 54 -4 109 -10 123 -9 24
-14 26 -74 26 l-65 0 -3 -92 -3 -92 -110 -62 c-60 -34 -111 -61 -113 -59 -5 5
-2 758 3 763 2 2 49 -23 105 -57 55 -34 105 -61 110 -61 6 0 10 -40 10 -90 l0
-90 69 0 c85 0 85 0 76 149 l-7 109 -107 60 c-127 72 -323 185 -367 212 -17
11 -34 17 -37 13z"/>
</g>
</svg>
